<?xml version="1.0" encoding="utf-8"?>
<!-- Generator: Adobe Illustrator 26.5.0, SVG Export Plug-In . SVG Version: 6.00 Build 0)  -->
<svg version="1.1" id="Layer_1" xmlns="http://www.w3.org/2000/svg" xmlns:xlink="http://www.w3.org/1999/xlink" x="0px" y="0px"
	 viewBox="0 0 450 450" style="enable-background:new 0 0 450 450;" xml:space="preserve">
<style type="text/css">
	.st0{fill:#A2A52F;}
	.st1{fill:#6B2618;}
	.st2{fill:#963323;}
	.st3{fill:#E68025;}
	.st4{fill:#F79A4D;}
	.st5{fill:#772A1D;}
	.st6{fill:#A3392B;}
</style>
<g>
	<g>
		<path class="st0" d="M254.75,128.46c-0.85,4.95-0.29,9.97,5.54,11.5l1.51,0c-5.16-1.2-7.4-4.79-6.26-11.36
			c0.91-5.26,10.54-19.94,15.68-23.43h-1.04C264.42,109.14,255.66,123.16,254.75,128.46z"/>
	</g>
	<g>
		<g>
			<g>
				<path class="st1" d="M288.59,123.66c-1.47,0.2-3.68,0.42-5.8,0.31c-1.7-0.08-4.83-0.24-5.28,0.08c0.04,0.05,0.14,0.16,0.44,0.35
					c0.5,0.31,5.14,1.34,6.95,1.34c1.19,0,4-0.22,5.68-0.35c-0.18-0.21-0.37-0.42-0.58-0.62
					C289.56,124.34,289.09,123.98,288.59,123.66z"/>
				<path class="st1" d="M286.58,134.02c-0.62,0.05-0.76,0.22-0.76,0.25c-0.01,0.17,0.63,0.77,2.8,1.21
					c0.92,0.19,1.83,0.32,2.67,0.41c0.4-0.63,0.71-1.3,0.94-1.99C290.32,133.9,287.71,133.93,286.58,134.02z"/>
				<path class="st1" d="M289.16,129.23c-1.44,0.02-9.85-0.19-14.61-1.08c-4.6-0.86-10.08-1.06-10.14-1.06l0.02-0.49
					c0.06,0,5.57,0.2,10.21,1.07c4.72,0.88,13.08,1.09,14.51,1.07c0.67-0.01,1.95-0.07,3.16-0.14c-0.29-0.97-0.75-1.9-1.38-2.74
					c-1.63,0.14-4.74,0.38-6.04,0.38c-1.8,0-6.6-1.04-7.2-1.42c-0.16-0.1-0.33-0.21-0.46-0.34c-0.17-0.17-0.28-0.36-0.21-0.57
					c0.19-0.6,1.68-0.64,5.8-0.43c1.8,0.09,3.66-0.06,5.07-0.22c-1.45-0.74-3.05-1.07-4.64-0.96l0,0l-6.29-0.01
					c-0.3,0.23-0.61,0.47-0.9,0.7c-0.73,0.58-1.41,1.13-1.95,1.37c-1.27,0.56-2.97,0.79-5.2,0.7c-2.08-0.09-8.1-0.8-8.16-0.81
					l0.06-0.49c0.06,0.01,6.06,0.72,8.13,0.81c2.15,0.09,3.78-0.12,4.97-0.66c0.48-0.21,1.14-0.74,1.84-1.3
					c0.13-0.11,0.27-0.21,0.4-0.32l-19.65-0.03l0.78,17.72l26.32,0.02l0-0.01c1.04,0.03,2.09-0.14,3.08-0.48
					c-1.06-0.02-2.16-0.12-2.98-0.37c-1.8-0.54-5.04-0.39-7.19-0.29c-0.45,0.02-0.85,0.04-1.19,0.05c-1.99,0.06-16.64,0.1-16.78,0.1
					l0-0.49c0.15,0,14.79-0.04,16.77-0.1c0.34-0.01,0.74-0.03,1.19-0.05c2.18-0.1,5.47-0.25,7.35,0.31
					c1.08,0.32,2.69,0.37,4.04,0.34c0.73-0.38,1.41-0.87,2.04-1.46c-1.64-0.13-3.29-0.56-5.09-1.04c-0.89-0.24-1.81-0.48-2.79-0.71
					c-2.39-0.55-6-0.05-8.16,0.24c-0.58,0.08-1.03,0.14-1.32,0.16c-1.35,0.1-8.75,0.23-9.06,0.23l-0.01-0.49
					c0.08,0,7.69-0.13,9.03-0.23c0.28-0.02,0.73-0.08,1.29-0.16c2.19-0.3,5.85-0.8,8.33-0.23c0.99,0.23,1.92,0.47,2.81,0.71
					c1.93,0.51,3.69,0.97,5.43,1.04c0.2-0.22,0.39-0.45,0.57-0.69c-0.78-0.09-1.61-0.22-2.44-0.39c-1.44-0.29-2.46-0.7-2.92-1.14
					c-0.19-0.19-0.29-0.38-0.28-0.58c0.01-0.23,0.19-0.63,1.22-0.72c0.93-0.08,3.78-0.13,5.84-0.12c0.09-0.33,0.15-0.66,0.2-1
					c-3.4,0-11.26,0.02-14.69,0.3c-4.46,0.36-12.44-1.85-12.77-1.94l0.13-0.48c0.08,0.02,8.23,2.27,12.6,1.92
					c3.46-0.28,11.42-0.3,14.79-0.3c0.08-0.95,0.01-1.9-0.21-2.83C291.19,129.15,289.86,129.22,289.16,129.23z"/>
				<path class="st2" d="M277.85,132.21c-4.38,0.35-12.52-1.9-12.6-1.92l-0.13,0.48c0.34,0.09,8.31,2.3,12.77,1.94
					c3.42-0.27,11.29-0.3,14.69-0.3c0.02-0.16,0.05-0.33,0.06-0.49C289.27,131.91,281.31,131.94,277.85,132.21z"/>
				<path class="st2" d="M282.16,135.29c-2.48-0.57-6.15-0.07-8.33,0.23c-0.57,0.08-1.01,0.14-1.29,0.16
					c-1.34,0.1-8.96,0.23-9.03,0.23l0.01,0.49c0.31-0.01,7.71-0.13,9.06-0.23c0.3-0.02,0.75-0.09,1.32-0.16
					c2.15-0.3,5.76-0.79,8.16-0.24c0.99,0.23,1.9,0.47,2.79,0.71c1.8,0.48,3.45,0.91,5.09,1.04c0.08-0.08,0.17-0.15,0.25-0.23
					c0.08-0.08,0.14-0.16,0.21-0.24c-1.74-0.07-3.49-0.53-5.43-1.04C284.07,135.77,283.15,135.52,282.16,135.29z"/>
				<path class="st2" d="M286.54,133.53c-1.03,0.08-1.2,0.48-1.22,0.72c-0.01,0.2,0.08,0.39,0.28,0.57
					c0.46,0.45,1.48,0.85,2.92,1.14c0.83,0.17,1.66,0.29,2.44,0.39c0.11-0.15,0.23-0.3,0.33-0.46c-0.84-0.1-1.75-0.23-2.67-0.41
					c-2.16-0.44-2.81-1.04-2.8-1.21c0-0.04,0.15-0.2,0.76-0.25c1.13-0.09,3.74-0.13,5.64-0.12c0.05-0.16,0.11-0.33,0.15-0.5
					C290.32,133.4,287.47,133.46,286.54,133.53z"/>
				<path class="st2" d="M289.15,128.73c-1.43,0.02-9.79-0.19-14.51-1.07c-4.64-0.87-10.16-1.07-10.21-1.07l-0.02,0.49
					c0.05,0,5.54,0.2,10.14,1.06c4.76,0.89,13.16,1.1,14.61,1.08c0.7-0.01,2.04-0.08,3.28-0.15c-0.04-0.16-0.08-0.33-0.13-0.49
					C291.1,128.66,289.82,128.72,289.15,128.73z"/>
				<path class="st2" d="M284.89,125.74c-1.8,0-6.45-1.04-6.95-1.34c-0.3-0.18-0.4-0.3-0.44-0.35c0.45-0.32,3.58-0.16,5.28-0.08
					c2.13,0.11,4.34-0.11,5.8-0.31c-0.23-0.15-0.47-0.28-0.71-0.41c-1.4,0.17-3.27,0.31-5.07,0.22c-4.12-0.2-5.61-0.17-5.8,0.43
					c-0.06,0.21,0.04,0.4,0.21,0.57c0.13,0.13,0.3,0.24,0.46,0.34c0.61,0.37,5.4,1.42,7.2,1.42c1.3,0,4.41-0.24,6.04-0.38
					c-0.12-0.16-0.23-0.31-0.36-0.47C288.89,125.53,286.08,125.74,284.89,125.74z"/>
				<path class="st2" d="M275.75,122.59c-0.7,0.56-1.36,1.09-1.84,1.3c-1.2,0.53-2.82,0.75-4.97,0.66c-2.06-0.09-8.07-0.8-8.13-0.81
					l-0.06,0.49c0.06,0.01,6.08,0.72,8.16,0.81c2.23,0.1,3.93-0.13,5.2-0.7c0.54-0.24,1.22-0.79,1.95-1.37
					c0.29-0.23,0.59-0.47,0.9-0.7l-0.8,0C276.01,122.38,275.88,122.49,275.75,122.59z"/>
				<path class="st2" d="M283.85,138.65c-1.88-0.56-5.17-0.41-7.35-0.31c-0.45,0.02-0.85,0.04-1.19,0.05
					c-1.98,0.06-16.62,0.1-16.77,0.1l0,0.49c0.15,0,14.8-0.04,16.78-0.1c0.34-0.01,0.75-0.03,1.19-0.05
					c2.14-0.1,5.38-0.25,7.19,0.29c0.82,0.25,1.92,0.34,2.98,0.37c0.41-0.14,0.81-0.3,1.2-0.5
					C286.54,139.02,284.93,138.97,283.85,138.65z"/>
			</g>
			<g>
				
					<ellipse transform="matrix(0.7321 -0.6812 0.6812 0.7321 -20.3611 210.3857)" class="st2" cx="257.29" cy="131.08" rx="8.86" ry="8.86"/>
			</g>
			<g>
				<path class="st3" d="M257.29,123.68c-4.09,0-7.4,3.31-7.4,7.4c0,4.09,3.31,7.4,7.4,7.4c4.09,0,7.4-3.31,7.4-7.4
					C264.69,126.99,261.38,123.68,257.29,123.68z"/>
			</g>
			<g>
				<path class="st4" d="M257.29,127.59c-1.93,0-3.49,1.56-3.49,3.49c0,1.93,1.56,3.49,3.49,3.49c1.93,0,3.49-1.56,3.49-3.49
					C260.78,129.15,259.21,127.59,257.29,127.59z"/>
			</g>
			<g>
				<path class="st4" d="M257.29,125.54c-3.05,0-5.54,2.48-5.54,5.54c0,3.05,2.48,5.54,5.54,5.54c3.05,0,5.54-2.48,5.54-5.54
					C262.82,128.02,260.34,125.54,257.29,125.54z M257.29,136.29c-2.87,0-5.21-2.34-5.21-5.21c0-2.87,2.34-5.21,5.21-5.21
					c2.87,0,5.21,2.34,5.21,5.21C262.5,133.95,260.16,136.29,257.29,136.29z"/>
			</g>
			<g>
				<path class="st4" d="M257.29,126.52c-2.51,0-4.56,2.04-4.56,4.56c0,2.51,2.04,4.56,4.56,4.56c2.51,0,4.56-2.04,4.56-4.56
					C261.84,128.57,259.8,126.52,257.29,126.52z M257.29,135.3c-2.33,0-4.23-1.9-4.23-4.23c0-2.33,1.9-4.23,4.23-4.23
					s4.23,1.9,4.23,4.23C261.51,133.41,259.62,135.3,257.29,135.3z"/>
			</g>
			<g>
				<path class="st4" d="M257.29,124.59c-3.58,0-6.48,2.91-6.48,6.48c0,3.58,2.91,6.48,6.48,6.48c3.58,0,6.48-2.91,6.48-6.48
					C263.77,127.5,260.86,124.59,257.29,124.59z M257.29,137.23c-3.39,0-6.15-2.76-6.15-6.15c0-3.39,2.76-6.15,6.15-6.15
					c3.39,0,6.15,2.76,6.15,6.15C263.44,134.47,260.68,137.23,257.29,137.23z"/>
			</g>
		</g>
		<g>
			<g>
				<path class="st5" d="M297.38,106.57c-1.47,0.2-3.68,0.42-5.8,0.31c-1.7-0.08-4.83-0.24-5.28,0.08c0.04,0.05,0.14,0.16,0.44,0.35
					c0.5,0.31,5.14,1.34,6.95,1.34c1.19,0,4-0.22,5.68-0.35c-0.18-0.21-0.37-0.42-0.58-0.62
					C298.34,107.25,297.87,106.89,297.38,106.57z"/>
				<path class="st5" d="M295.36,116.93c-0.62,0.05-0.76,0.22-0.76,0.25c-0.01,0.17,0.63,0.77,2.8,1.21
					c0.92,0.19,1.83,0.32,2.67,0.41c0.4-0.63,0.71-1.3,0.94-1.99C299.1,116.81,296.49,116.84,295.36,116.93z"/>
				<path class="st5" d="M297.94,112.14c-1.44,0.02-9.85-0.19-14.61-1.08c-4.6-0.86-10.08-1.06-10.14-1.06l0.02-0.49
					c0.06,0,5.57,0.2,10.21,1.07c4.72,0.88,13.08,1.09,14.51,1.07c0.67-0.01,1.95-0.07,3.16-0.14c-0.29-0.97-0.75-1.9-1.38-2.74
					c-1.63,0.14-4.74,0.38-6.04,0.38c-1.8,0-6.6-1.04-7.2-1.42c-0.16-0.1-0.33-0.21-0.46-0.34c-0.17-0.17-0.28-0.36-0.21-0.57
					c0.19-0.6,1.68-0.64,5.8-0.43c1.8,0.09,3.66-0.06,5.07-0.22c-1.45-0.74-3.05-1.07-4.64-0.96l0,0l-6.29-0.01
					c-0.3,0.23-0.61,0.47-0.9,0.7c-0.73,0.58-1.41,1.13-1.95,1.37c-1.27,0.56-2.97,0.79-5.2,0.7c-2.08-0.09-8.1-0.8-8.16-0.81
					l0.06-0.49c0.06,0.01,6.06,0.72,8.13,0.81c2.15,0.09,3.78-0.12,4.97-0.66c0.48-0.21,1.14-0.74,1.84-1.3
					c0.13-0.11,0.27-0.21,0.4-0.32l-19.65-0.03l0.79,17.72l26.32,0.02l0-0.01c1.04,0.03,2.09-0.14,3.08-0.48
					c-1.06-0.02-2.16-0.12-2.98-0.37c-1.8-0.54-5.04-0.39-7.19-0.29c-0.45,0.02-0.85,0.04-1.19,0.05c-1.99,0.06-16.64,0.1-16.78,0.1
					l0-0.49c0.15,0,14.79-0.04,16.77-0.1c0.34-0.01,0.74-0.03,1.19-0.05c2.18-0.1,5.47-0.25,7.35,0.31
					c1.08,0.32,2.69,0.37,4.04,0.34c0.73-0.38,1.41-0.87,2.04-1.46c-1.64-0.13-3.29-0.56-5.09-1.04c-0.89-0.24-1.81-0.48-2.79-0.71
					c-2.39-0.55-6-0.05-8.16,0.24c-0.58,0.08-1.03,0.14-1.32,0.16c-1.35,0.11-8.75,0.23-9.06,0.23l-0.01-0.49
					c0.08,0,7.69-0.13,9.03-0.23c0.28-0.02,0.73-0.08,1.3-0.16c2.19-0.3,5.85-0.8,8.33-0.23c0.99,0.23,1.92,0.47,2.81,0.71
					c1.93,0.51,3.69,0.97,5.43,1.04c0.2-0.22,0.39-0.45,0.57-0.69c-0.78-0.09-1.61-0.22-2.44-0.39c-1.44-0.29-2.46-0.7-2.92-1.14
					c-0.19-0.19-0.29-0.38-0.28-0.57c0.01-0.23,0.19-0.63,1.22-0.72c0.93-0.08,3.78-0.13,5.84-0.12c0.09-0.33,0.15-0.66,0.2-1
					c-3.4,0-11.26,0.02-14.69,0.3c-4.46,0.36-12.44-1.85-12.77-1.94l0.13-0.48c0.08,0.02,8.23,2.27,12.6,1.92
					c3.46-0.28,11.42-0.3,14.79-0.3c0.08-0.95,0.01-1.9-0.21-2.83C299.98,112.06,298.64,112.13,297.94,112.14z"/>
				<path class="st6" d="M286.64,115.12c-4.38,0.35-12.52-1.9-12.6-1.92l-0.13,0.48c0.34,0.09,8.31,2.3,12.77,1.94
					c3.42-0.27,11.29-0.3,14.69-0.3c0.02-0.16,0.05-0.33,0.06-0.49C298.05,114.82,290.1,114.85,286.64,115.12z"/>
				<path class="st6" d="M290.94,118.21c-2.48-0.57-6.15-0.07-8.33,0.23c-0.57,0.08-1.01,0.14-1.3,0.16
					c-1.34,0.1-8.96,0.23-9.03,0.23l0.01,0.49c0.31-0.01,7.71-0.13,9.06-0.23c0.3-0.02,0.75-0.09,1.32-0.16
					c2.15-0.3,5.76-0.79,8.16-0.24c0.99,0.23,1.9,0.47,2.79,0.71c1.8,0.48,3.45,0.91,5.09,1.04c0.08-0.08,0.17-0.15,0.25-0.23
					c0.08-0.08,0.14-0.16,0.21-0.24c-1.74-0.07-3.49-0.53-5.43-1.04C292.86,118.68,291.93,118.44,290.94,118.21z"/>
				<path class="st6" d="M295.32,116.44c-1.03,0.08-1.2,0.48-1.22,0.72c-0.01,0.2,0.08,0.39,0.28,0.57
					c0.46,0.45,1.48,0.85,2.92,1.14c0.83,0.17,1.66,0.29,2.44,0.39c0.11-0.15,0.23-0.3,0.33-0.46c-0.84-0.1-1.75-0.23-2.67-0.41
					c-2.16-0.44-2.81-1.04-2.8-1.21c0-0.04,0.15-0.2,0.76-0.25c1.13-0.09,3.74-0.13,5.64-0.12c0.05-0.16,0.11-0.33,0.15-0.5
					C299.1,116.31,296.25,116.37,295.32,116.44z"/>
				<path class="st6" d="M297.94,111.64c-1.43,0.02-9.79-0.19-14.51-1.07c-4.64-0.87-10.16-1.07-10.21-1.07L273.2,110
					c0.05,0,5.54,0.2,10.14,1.06c4.76,0.89,13.16,1.1,14.61,1.08c0.7-0.01,2.04-0.08,3.28-0.15c-0.04-0.16-0.08-0.33-0.13-0.49
					C299.89,111.57,298.61,111.63,297.94,111.64z"/>
				<path class="st6" d="M293.68,108.65c-1.8,0-6.45-1.04-6.95-1.34c-0.3-0.18-0.4-0.3-0.44-0.35c0.45-0.32,3.58-0.16,5.28-0.08
					c2.13,0.11,4.34-0.11,5.8-0.31c-0.23-0.15-0.47-0.28-0.71-0.41c-1.4,0.17-3.27,0.31-5.07,0.22c-4.12-0.2-5.61-0.17-5.8,0.43
					c-0.06,0.21,0.04,0.4,0.21,0.57c0.13,0.13,0.3,0.24,0.46,0.34c0.61,0.37,5.4,1.42,7.2,1.42c1.3,0,4.41-0.24,6.04-0.38
					c-0.12-0.16-0.23-0.31-0.36-0.47C297.67,108.44,294.86,108.65,293.68,108.65z"/>
				<path class="st6" d="M284.53,105.51c-0.7,0.56-1.36,1.09-1.84,1.3c-1.2,0.53-2.82,0.75-4.97,0.66c-2.06-0.09-8.07-0.8-8.13-0.81
					l-0.06,0.49c0.06,0.01,6.08,0.72,8.16,0.81c2.23,0.1,3.93-0.13,5.2-0.7c0.54-0.24,1.22-0.79,1.95-1.37
					c0.29-0.23,0.59-0.47,0.9-0.7l-0.8,0C284.8,105.29,284.66,105.4,284.53,105.51z"/>
				<path class="st6" d="M292.63,121.56c-1.88-0.56-5.17-0.41-7.35-0.31c-0.45,0.02-0.85,0.04-1.19,0.05
					c-1.98,0.06-16.62,0.1-16.77,0.1l0,0.49c0.15,0,14.8-0.04,16.78-0.1c0.34-0.01,0.75-0.03,1.19-0.05
					c2.14-0.1,5.38-0.25,7.19,0.29c0.82,0.25,1.92,0.34,2.98,0.37c0.41-0.14,0.81-0.3,1.2-0.5
					C295.33,121.93,293.71,121.88,292.63,121.56z"/>
			</g>
			<g>
				
					<ellipse transform="matrix(0.0407 -0.9992 0.9992 0.0407 141.3439 375.1989)" class="st6" cx="266.07" cy="113.99" rx="8.86" ry="8.86"/>
			</g>
			<g>
				<circle class="st3" cx="266.07" cy="113.99" r="7.4"/>
			</g>
			<g>
				<path class="st4" d="M266.07,110.5c-1.93,0-3.49,1.56-3.49,3.49c0,1.93,1.56,3.49,3.49,3.49c1.93,0,3.49-1.56,3.49-3.49
					C269.56,112.06,268,110.5,266.07,110.5z"/>
			</g>
			<g>
				<path class="st4" d="M266.07,108.45c-3.05,0-5.54,2.48-5.54,5.54s2.48,5.54,5.54,5.54c3.05,0,5.54-2.48,5.54-5.54
					S269.12,108.45,266.07,108.45z M266.07,119.2c-2.87,0-5.21-2.34-5.21-5.21s2.34-5.21,5.21-5.21c2.87,0,5.21,2.34,5.21,5.21
					S268.94,119.2,266.07,119.2z"/>
			</g>
			<g>
				<path class="st4" d="M266.07,109.43c-2.51,0-4.56,2.04-4.56,4.56c0,2.51,2.04,4.56,4.56,4.56s4.56-2.04,4.56-4.56
					C270.63,111.48,268.58,109.43,266.07,109.43z M266.07,118.22c-2.33,0-4.23-1.9-4.23-4.23s1.9-4.23,4.23-4.23
					c2.33,0,4.23,1.9,4.23,4.23S268.4,118.22,266.07,118.22z"/>
			</g>
			<g>
				<path class="st4" d="M266.07,107.51c-3.58,0-6.48,2.91-6.48,6.48s2.91,6.48,6.48,6.48c3.58,0,6.48-2.91,6.48-6.48
					S269.65,107.51,266.07,107.51z M266.07,120.14c-3.39,0-6.15-2.76-6.15-6.15c0-3.39,2.76-6.15,6.15-6.15
					c3.39,0,6.15,2.76,6.15,6.15C272.22,117.38,269.46,120.14,266.07,120.14z"/>
			</g>
		</g>
		<g>
			<g>
				<path class="st1" d="M308.34,123.66c-1.47,0.2-3.68,0.42-5.8,0.31c-1.7-0.08-4.83-0.24-5.28,0.08c0.04,0.05,0.14,0.16,0.44,0.35
					c0.5,0.31,5.14,1.34,6.95,1.34c1.19,0,4-0.22,5.68-0.35c-0.18-0.21-0.37-0.42-0.58-0.62
					C309.31,124.34,308.84,123.98,308.34,123.66z"/>
				<path class="st1" d="M306.33,134.02c-0.62,0.05-0.76,0.22-0.76,0.25c-0.01,0.17,0.63,0.77,2.8,1.21
					c0.92,0.19,1.83,0.32,2.67,0.41c0.4-0.63,0.71-1.3,0.94-1.99C310.07,133.9,307.46,133.93,306.33,134.02z"/>
				<path class="st1" d="M308.91,129.23c-1.44,0.02-9.85-0.19-14.61-1.08c-4.6-0.86-10.08-1.06-10.14-1.06l0.02-0.49
					c0.06,0,5.57,0.2,10.21,1.07c4.72,0.88,13.08,1.09,14.51,1.07c0.67-0.01,1.95-0.07,3.16-0.14c-0.29-0.97-0.75-1.9-1.38-2.74
					c-1.63,0.14-4.74,0.38-6.04,0.38c-1.8,0-6.6-1.04-7.2-1.42c-0.16-0.1-0.33-0.21-0.46-0.34c-0.17-0.17-0.28-0.36-0.21-0.57
					c0.19-0.6,1.68-0.64,5.8-0.43c1.8,0.09,3.66-0.06,5.07-0.22c-1.45-0.74-3.05-1.07-4.64-0.96l0,0l-6.29-0.01
					c-0.3,0.23-0.61,0.47-0.9,0.7c-0.73,0.58-1.41,1.13-1.95,1.37c-1.27,0.56-2.97,0.79-5.2,0.7c-2.08-0.09-8.1-0.8-8.16-0.81
					l0.06-0.49c0.06,0.01,6.06,0.72,8.13,0.81c2.15,0.09,3.78-0.12,4.97-0.66c0.48-0.21,1.14-0.74,1.84-1.3
					c0.13-0.11,0.27-0.21,0.4-0.32l-19.65-0.03l0.79,17.72l26.32,0.02l0-0.01c1.04,0.03,2.09-0.14,3.08-0.48
					c-1.06-0.02-2.16-0.12-2.98-0.37c-1.8-0.54-5.04-0.39-7.19-0.29c-0.45,0.02-0.85,0.04-1.19,0.05c-1.99,0.06-16.64,0.1-16.78,0.1
					l0-0.49c0.15,0,14.79-0.04,16.77-0.1c0.34-0.01,0.74-0.03,1.19-0.05c2.18-0.1,5.47-0.25,7.35,0.31
					c1.08,0.32,2.69,0.37,4.04,0.34c0.73-0.38,1.41-0.87,2.04-1.46c-1.64-0.13-3.29-0.56-5.09-1.04c-0.89-0.24-1.81-0.48-2.79-0.71
					c-2.39-0.55-6-0.05-8.16,0.24c-0.58,0.08-1.03,0.14-1.32,0.16c-1.35,0.1-8.75,0.23-9.06,0.23l-0.01-0.49
					c0.08,0,7.69-0.13,9.03-0.23c0.28-0.02,0.73-0.08,1.3-0.16c2.19-0.3,5.85-0.8,8.33-0.23c0.99,0.23,1.92,0.47,2.81,0.71
					c1.93,0.51,3.69,0.97,5.43,1.04c0.2-0.22,0.39-0.45,0.57-0.69c-0.78-0.09-1.61-0.22-2.44-0.39c-1.44-0.29-2.46-0.7-2.92-1.14
					c-0.19-0.19-0.29-0.38-0.28-0.58c0.01-0.23,0.19-0.63,1.22-0.72c0.93-0.08,3.78-0.13,5.84-0.12c0.09-0.33,0.15-0.66,0.2-1
					c-3.4,0-11.26,0.02-14.69,0.3c-4.46,0.36-12.44-1.85-12.77-1.94l0.13-0.48c0.08,0.02,8.23,2.27,12.6,1.92
					c3.46-0.28,11.42-0.3,14.79-0.3c0.08-0.95,0.01-1.9-0.21-2.83C310.95,129.15,309.61,129.22,308.91,129.23z"/>
				<path class="st2" d="M297.6,132.21c-4.38,0.35-12.52-1.9-12.6-1.92l-0.13,0.48c0.34,0.09,8.31,2.3,12.77,1.94
					c3.42-0.27,11.29-0.3,14.69-0.3c0.02-0.16,0.05-0.33,0.06-0.49C309.02,131.91,301.06,131.94,297.6,132.21z"/>
				<path class="st2" d="M301.91,135.29c-2.48-0.57-6.15-0.07-8.33,0.23c-0.57,0.08-1.01,0.14-1.3,0.16
					c-1.34,0.1-8.96,0.23-9.03,0.23l0.01,0.49c0.31-0.01,7.71-0.13,9.06-0.23c0.3-0.02,0.75-0.09,1.32-0.16
					c2.15-0.3,5.76-0.79,8.16-0.24c0.99,0.23,1.9,0.47,2.79,0.71c1.8,0.48,3.45,0.91,5.09,1.04c0.08-0.08,0.17-0.15,0.25-0.23
					c0.08-0.08,0.14-0.16,0.21-0.24c-1.74-0.07-3.49-0.53-5.43-1.04C303.82,135.77,302.9,135.52,301.91,135.29z"/>
				<path class="st2" d="M306.29,133.53c-1.03,0.08-1.2,0.48-1.22,0.72c-0.01,0.2,0.08,0.39,0.28,0.57
					c0.46,0.45,1.48,0.85,2.92,1.14c0.83,0.17,1.66,0.29,2.44,0.39c0.11-0.15,0.23-0.3,0.33-0.46c-0.84-0.1-1.75-0.23-2.67-0.41
					c-2.16-0.44-2.81-1.04-2.8-1.21c0-0.04,0.15-0.2,0.76-0.25c1.13-0.09,3.74-0.13,5.64-0.12c0.05-0.16,0.11-0.33,0.15-0.5
					C310.07,133.4,307.22,133.46,306.29,133.53z"/>
				<path class="st2" d="M308.9,128.73c-1.43,0.02-9.79-0.19-14.51-1.07c-4.64-0.87-10.16-1.07-10.21-1.07l-0.02,0.49
					c0.06,0,5.54,0.2,10.14,1.06c4.76,0.89,13.16,1.1,14.61,1.08c0.7-0.01,2.04-0.08,3.28-0.15c-0.04-0.16-0.08-0.33-0.13-0.49
					C310.85,128.66,309.57,128.72,308.9,128.73z"/>
				<path class="st2" d="M304.64,125.74c-1.8,0-6.45-1.04-6.95-1.34c-0.3-0.18-0.4-0.3-0.44-0.35c0.45-0.32,3.58-0.16,5.28-0.08
					c2.13,0.11,4.34-0.11,5.8-0.31c-0.23-0.15-0.47-0.28-0.71-0.41c-1.4,0.17-3.27,0.31-5.07,0.22c-4.12-0.2-5.61-0.17-5.8,0.43
					c-0.06,0.21,0.04,0.4,0.21,0.57c0.13,0.13,0.3,0.24,0.46,0.34c0.61,0.37,5.4,1.42,7.2,1.42c1.3,0,4.41-0.24,6.04-0.38
					c-0.12-0.16-0.23-0.31-0.36-0.47C308.64,125.53,305.83,125.74,304.64,125.74z"/>
				<path class="st2" d="M295.5,122.59c-0.7,0.56-1.36,1.09-1.84,1.3c-1.2,0.53-2.82,0.75-4.97,0.66c-2.06-0.09-8.07-0.8-8.13-0.81
					l-0.06,0.49c0.06,0.01,6.08,0.72,8.16,0.81c2.23,0.1,3.93-0.13,5.2-0.7c0.54-0.24,1.22-0.79,1.95-1.37
					c0.29-0.23,0.59-0.47,0.9-0.7l-0.8,0C295.77,122.38,295.63,122.49,295.5,122.59z"/>
				<path class="st2" d="M303.6,138.65c-1.88-0.56-5.17-0.41-7.35-0.31c-0.45,0.02-0.85,0.04-1.19,0.05
					c-1.98,0.06-16.62,0.1-16.77,0.1l0,0.49c0.15,0,14.8-0.04,16.78-0.1c0.34-0.01,0.75-0.03,1.19-0.05
					c2.14-0.1,5.38-0.25,7.19,0.29c0.82,0.25,1.92,0.34,2.98,0.37c0.41-0.14,0.81-0.3,1.2-0.5
					C306.29,139.02,304.68,138.97,303.6,138.65z"/>
			</g>
			<g>
				<circle class="st2" cx="277.04" cy="131.08" r="8.86"/>
			</g>
			<g>
				<circle class="st3" cx="277.04" cy="131.08" r="7.4"/>
			</g>
			<g>
				<path class="st4" d="M277.04,127.59c-1.93,0-3.49,1.56-3.49,3.49c0,1.93,1.56,3.49,3.49,3.49c1.93,0,3.49-1.56,3.49-3.49
					C280.53,129.15,278.97,127.59,277.04,127.59z"/>
			</g>
			<g>
				<path class="st4" d="M277.04,125.54c-3.05,0-5.54,2.48-5.54,5.54c0,3.05,2.48,5.54,5.54,5.54c3.05,0,5.54-2.48,5.54-5.54
					C282.58,128.02,280.09,125.54,277.04,125.54z M277.04,136.29c-2.87,0-5.21-2.34-5.21-5.21c0-2.87,2.34-5.21,5.21-5.21
					c2.87,0,5.21,2.34,5.21,5.21C282.25,133.95,279.91,136.29,277.04,136.29z"/>
			</g>
			<g>
				<path class="st4" d="M277.04,126.52c-2.51,0-4.56,2.04-4.56,4.56c0,2.51,2.04,4.56,4.56,4.56c2.51,0,4.56-2.04,4.56-4.56
					C281.59,128.57,279.55,126.52,277.04,126.52z M277.04,135.3c-2.33,0-4.23-1.9-4.23-4.23c0-2.33,1.9-4.23,4.23-4.23
					c2.33,0,4.23,1.9,4.23,4.23C281.26,133.41,279.37,135.3,277.04,135.3z"/>
			</g>
			<g>
				<path class="st4" d="M277.04,124.59c-3.58,0-6.48,2.91-6.48,6.48c0,3.58,2.91,6.48,6.48,6.48c3.58,0,6.48-2.91,6.48-6.48
					C283.52,127.5,280.61,124.59,277.04,124.59z M277.04,137.23c-3.39,0-6.15-2.76-6.15-6.15c0-3.39,2.76-6.15,6.15-6.15
					c3.39,0,6.15,2.76,6.15,6.15C283.19,134.47,280.43,137.23,277.04,137.23z"/>
			</g>
		</g>
	</g>
	<g>
		<path class="st0" d="M274.55,105.16h-1.04c5.14,3.49,14.77,18.17,15.68,23.43c1.13,6.58-1.1,10.16-6.26,11.36l1.51,0
			c5.84-1.53,6.4-6.56,5.54-11.5C289.07,123.16,280.31,109.14,274.55,105.16z"/>
	</g>
	<g>
		<path class="st0" d="M289.91,105.16h-1.04c5.14,3.49,14.77,18.17,15.68,23.43c1.13,6.58-1.1,10.16-6.26,11.36l1.51,0
			c5.84-1.53,6.4-6.56,5.54-11.5C304.42,123.16,295.66,109.14,289.91,105.16z"/>
	</g>
</g>
</svg>
